<svg xmlns="http://www.w3.org/2000/svg" width="39" height="35" viewBox="0 0 39 35">
    <g fill="#000" fill-rule="evenodd" transform="translate(.167)">
        <path d="M36.176.071H2.324C1.043.071 0 1.126 0 2.422v23.64c0 1.296 1.043 2.35 2.324 2.35h11.6v1.71c0 1.569-1.261 2.845-2.812 2.845H8.556a.893.893 0 0 0-.888.897c0 .496.398.898.888.898h21.388c.49 0 .888-.402.888-.898a.893.893 0 0 0-.888-.897h-2.556c-1.55 0-2.812-1.276-2.812-2.844v-1.71h11.6c1.281 0 2.324-1.055 2.324-2.351V2.422c0-1.296-1.043-2.35-2.324-2.35zM14.732 32.967a4.648 4.648 0 0 0 .967-2.844v-1.71h7.102v1.71c0 1.071.362 2.058.967 2.844h-9.036zm21.993-6.905a.553.553 0 0 1-.55.555H2.326a.553.553 0 0 1-.55-.555v-4.718h34.95v4.718zm0-6.514H1.775V2.422c0-.306.246-.555.55-.555h33.85c.304 0 .55.249.55.555v17.126z"/>
        <ellipse cx="19.25" cy="23.981" rx=".958" ry=".969"/>
        <path d="M20.772 6.256a.88.88 0 0 0-1.255 0L13.244 12.6a.905.905 0 0 0 0 1.27.88.88 0 0 0 1.255 0l6.273-6.345a.905.905 0 0 0 0-1.27zM24.49 9.932a.88.88 0 0 0-1.256 0l-2.498 2.527a.905.905 0 0 0 0 1.27.88.88 0 0 0 1.255 0l2.498-2.527a.905.905 0 0 0 0-1.27z"/>
    </g>
</svg>
