<svg xmlns="http://www.w3.org/2000/svg" width="49" height="32" viewBox="0 0 49 32">
    <g fill="#000" fill-rule="evenodd">
        <path d="M48.206 27.036h-8.138l-7.701-7.685a11.08 11.08 0 0 0-.186-.181c.339-.786.574-1.539.683-2.195.196-1.174-.218-1.957-.6-2.407a3.013 3.013 0 0 0-1.522-.94c-.012-2.17-1.51-3.286-1.58-3.338a.798.798 0 0 0-1.113.172.788.788 0 0 0 .172 1.104c.042.032.906.706.932 2.038a3.213 3.213 0 0 0-2.426 2.391c-.019.08-.043.194-.07.319-3.516-.689-7.305.323-10.024 3.037l-.246.246a3.224 3.224 0 0 0-2.903-.772c-.553-1.213-.066-2.192-.045-2.232a.794.794 0 0 0-1.397-.753c-.042.077-.91 1.73.02 3.692-.472.403-.817.93-.967 1.503-.15.57-.185 1.455.5 2.43a7.1 7.1 0 0 0 .401.513l-3.064 3.058H.794a.793.793 0 1 0 0 1.584H7.17l1.54 2.05A3.352 3.352 0 0 0 11.377 32h26.246c1.044 0 2.04-.497 2.667-1.33l1.54-2.05h6.376a.793.793 0 1 0 0-1.584zM28.203 16.678c.026-.124.05-.241.069-.319.172-.728.855-1.257 1.625-1.257h.001c.457 0 .899.188 1.155.49.24.282.322.66.245 1.123-.069.41-.209.893-.403 1.401a11.044 11.044 0 0 0-2.703-1.387 3.75 3.75 0 0 0 .01-.051zm-10.447 3.793c3.718-3.711 9.77-3.711 13.488 0l6.58 6.565H27.462c.242-.146.48-.303.718-.47a.791.791 0 0 0-.593-1.428c-.055.01-5.363.847-10.147-4.352l.316-.315zm-5.126.966c.1-.383.418-.742.83-.94h.001c.233-.111.482-.164.729-.164.49 0 .968.21 1.281.597 2.881 3.567 6.069 4.948 8.235 5.48.326.08.639.143.936.193a8.86 8.86 0 0 1-2.672.433h-.127a9.8 9.8 0 0 1-1.628-.146c-3.545-.614-6.371-2.985-7.32-4.335-.27-.384-.359-.76-.265-1.118zm.484 3.666c.754.666 1.7 1.348 2.794 1.933h-4.731l1.937-1.933zM39.02 29.72c-.328.436-.85.697-1.397.697H11.377c-.547 0-1.069-.26-1.397-.697l-.826-1.099h30.692l-.826 1.099z"/>
        <path d="M23.23 21.861c.671 0 1.217-.544 1.217-1.214a1.217 1.217 0 0 0-2.434 0c0 .67.546 1.214 1.217 1.214zM31.697 26.086c.67 0 1.217-.545 1.217-1.215a1.217 1.217 0 0 0-2.435 0c0 .67.546 1.215 1.218 1.215zM26.19 23.56a.8.8 0 0 0 .797-.797.8.8 0 0 0-.798-.796.8.8 0 0 0-.798.796.8.8 0 0 0 .798.797zM28.729 21.87a.8.8 0 0 0 .798-.796.8.8 0 0 0-.798-.797.8.8 0 0 0-.798.797.8.8 0 0 0 .798.796zM21.166 9.245c0 1.333.566 2.038 1.021 2.605.39.487.673.838.673 1.616a.793.793 0 0 0 1.587 0c0-1.334-.566-2.039-1.02-2.606-.391-.487-.673-.838-.673-1.615 0-.779.282-1.13.673-1.618.454-.567 1.02-1.273 1.02-2.607 0-1.335-.566-2.041-1.02-2.609-.391-.487-.673-.84-.673-1.619a.793.793 0 0 0-1.588 0c0 1.335.566 2.041 1.02 2.609.391.487.674.84.674 1.619 0 .778-.283 1.13-.673 1.618-.455.567-1.02 1.273-1.02 2.607zM25.45 10.036a.794.794 0 0 0 .623-.3c.573-.715 1.76-2.2 1.76-4.716a7.034 7.034 0 0 0-.585-2.865.794.794 0 0 0-1.452.64c.299.676.45 1.424.45 2.225 0 1.955-.878 3.059-1.408 3.72a.793.793 0 0 0 .613 1.296zM19.084 12.563a.792.792 0 0 0 .727-1.11 5.46 5.46 0 0 1-.444-2.208c0-1.964.886-3.068 1.415-3.729a.798.798 0 0 0 .04-.94.795.795 0 0 0-1.328.012c-.589.735-1.714 2.207-1.714 4.657a7.03 7.03 0 0 0 .577 2.843c.13.297.421.475.727.475z"/>
    </g>
</svg>
