<svg xmlns="http://www.w3.org/2000/svg" width="41" height="35" viewBox="0 0 41 35">
    <g fill="#000" fill-rule="evenodd">
        <path d="M33.302 22.585v1.151h3.258v1.209h1.175v-2.36zM36.56 25.738h1.175v1.059H36.56zM5.213 29.017h8.433v1.152H5.213zM14.272 29.017h1.175v1.151h-1.175zM11.36 5.778v-.705h-1.175v.705h-.718v1.151h.718v.705h1.175v-.705h.719V5.778zM30.783 5.778v-.705h-1.175v.705h-.719v1.151h.719v.705h1.175v-.705h.718V5.778zM21.048 5.778v-.705h-1.175v.705h-.718v1.151h.718v.705h1.175v-.705h.719V5.778z"/>
        <path d="M39.062.005c-.842 0-1.527.67-1.527 1.496 0 .621.388 1.155.94 1.38v3.162C36.804 3 33.524.929 29.76.929c-1.625 0-3.225.392-4.65 1.137a10.05 10.05 0 0 0-4.65-1.137c-1.626 0-3.226.392-4.65 1.137A10.05 10.05 0 0 0 11.16.929C7.395.929 4.116 3 2.446 6.043V2.882c.551-.226.94-.76.94-1.381C3.386.676 2.701.005 1.86.005 1.018.005.333.676.333 1.5c0 .621.388 1.155.94 1.38v29.164h1.174v2.784h3.354v-2.784h28.493v2.784h3.354v-2.784h2.001V2.88c.551-.225.94-.759.94-1.38-.001-.825-.686-1.496-1.527-1.496zM1.86 1.845a.349.349 0 0 1-.352-.344c0-.19.158-.345.352-.345.194 0 .351.155.351.345 0 .19-.157.345-.351.345zm2.766 31.832H3.622v-1.632h1.004v1.632zm31.847 0H35.47v-1.632h1.004v1.632zm1.175-2.784H2.447v-9.002h36.027v9.002h-.826zm.064-10.154H3.282a.756.756 0 0 1-.763-.747c0-.412.342-.748.763-.748h34.43c.42 0 .762.336.762.748a.756.756 0 0 1-.762.747zm-17.839-4.664H34.467a3.56 3.56 0 0 1 3.222 2.018H3.282l-.05.001a3.56 3.56 0 0 1 3.222-2.019h13.42zM7.525 14.924v-3.167c0-1.01.837-1.83 1.867-1.83h8.615c1.029 0 1.866.82 1.866 1.83v3.167H7.525zm13.523 0v-3.167c0-1.01.837-1.83 1.867-1.83h8.615c1.03 0 1.866.82 1.866 1.83v3.167H21.048zm17.426-2.108v4.289a4.746 4.746 0 0 0-3.903-2.179v-3.17c0-1.643-1.364-2.98-3.041-2.98h-8.615c-1.007 0-1.9.482-2.454 1.222a3.058 3.058 0 0 0-2.454-1.222H9.392c-1.678 0-3.042 1.337-3.042 2.98v3.17a4.745 4.745 0 0 0-3.903 2.179V10.62c0-4.71 3.909-8.54 8.713-8.54 1.532 0 3.038.394 4.356 1.142l.294.167.295-.167A8.844 8.844 0 0 1 20.46 2.08c1.531 0 3.038.395 4.356 1.143l.294.167.294-.167a8.844 8.844 0 0 1 4.356-1.143c4.805 0 8.713 3.832 8.713 8.54v2.196zm.588-10.97a.349.349 0 0 1-.352-.345c0-.19.158-.345.352-.345.193 0 .351.155.351.345 0 .19-.157.345-.351.345z"/>
    </g>
</svg>
