<svg xmlns="http://www.w3.org/2000/svg" width="25" height="45" viewBox="0 0 25 45">
    <g fill="#000" fill-rule="evenodd">
        <path d="M23.99 3.203L21.35.77A1.062 1.062 0 0 0 20.63.5H8.117c-.55 0-.997.396-.997.884v.443H4.13c-.551 0-.998.396-.998.884v3.538c0 .488.447.884.997.884H7.12v.442c0 .489.447.885.997.885h4.074l-1.458 1.293a.816.816 0 0 0 0 1.25c.195.173.45.26.705.26.256 0 .51-.087.705-.26l1.458-1.292v1.433c-.426.1-.74.444-.74.853v3.538c0 .387.28.715.67.835a7.832 7.832 0 0 0-.154 3.604c.27 1.428-.526 2.864-1.981 3.575-.796.388-1.566.74-2.311 1.079-2.229 1.016-4.154 1.894-5.65 3.24-1.68 1.51-2.573 3.415-2.808 5.993v.001c-.042.456-.063.946-.063 1.456v6.328c0 1.574 1.443 2.854 3.217 2.854H19.53c1.555 0 2.887-.986 3.165-2.344.393-1.914.908-4.884 1.138-8.166.088-1.239.128-2.454.12-3.613.182-5.867-.92-11.934-1.42-14.21.185-.16.3-.384.3-.632v-3.537c0-.454-.385-.827-.88-.878l2.28-7.06a.815.815 0 0 0-.241-.857zM7.12 5.364H5.126V3.595H7.12v1.77zm2.877 20.837c.757-.345 1.54-.702 2.36-1.102 2.197-1.073 3.397-3.25 2.987-5.417a6.235 6.235 0 0 1 .243-3.262h1.672c.013 2.464-.216 9.9-3.129 16.63H2.743c.703-3.862 3.366-5.076 7.254-6.849zm4.858-11.55v-1.77h5.983v1.77H14.855zm5.878 27.188c-.107.517-.613.892-1.204.892H3.78c-.674 0-1.223-.487-1.223-1.085 0 0 .002-6.664.007-6.828H13.29c-.49.943-1.038 1.86-1.654 2.736-.292.414-.15.96.317 1.219.164.09.347.134.527.134.333 0 .658-.147.847-.416a25.98 25.98 0 0 0 2.142-3.673h6.299a63.307 63.307 0 0 1-1.035 7.021zm1.225-11.496a44.027 44.027 0 0 1-.065 2.706h-5.639c1.395-3.424 2.127-6.888 2.51-9.588.446-3.159.501-5.735.491-7.041h1.303c.463 2.06 1.584 8.079 1.4 13.923zm-2.079-19.23h-4.284V7.575c0-.488-.446-.884-.997-.884H9.114V2.269h11.093l1.95 1.794-2.278 7.05z"/>
        <path d="M11.123 39.706c-.428-.311-1.056-.25-1.402.135l-.034.038c-.348.385-.281.948.146 1.26.185.136.407.201.627.201.291 0 .58-.114.777-.332l.036-.04c.346-.386.28-.95-.15-1.262z"/>
    </g>
</svg>
