<svg xmlns="http://www.w3.org/2000/svg" width="43" height="33" viewBox="0 0 43 33">
    <g fill="#000" fill-rule="evenodd">
        <path d="M21.083 23.118c1.5 0 2.72-1.247 2.72-2.78 0-1.534-1.22-2.781-2.72-2.781-1.5 0-2.72 1.247-2.72 2.78 0 1.534 1.22 2.781 2.72 2.781zm0-3.707c.5 0 .907.415.907.927a.918.918 0 0 1-.907.926.918.918 0 0 1-.906-.926c0-.512.406-.927.906-.927z"/>
        <path d="M41.26.047H.907C.407.047 0 .462 0 .974V6.42c0 2.364 1.881 4.287 4.194 4.287h.34v5.33c0 9.327 7.424 16.916 16.55 16.916 9.125 0 16.549-7.589 16.549-16.916v-5.33h.34c2.312 0 4.194-1.923 4.194-4.287V.974a.917.917 0 0 0-.907-.927zM21.083 31.1c-6.327 0-11.736-4.098-13.82-9.835h6.626c.448 3.652 3.502 6.487 7.194 6.487s6.747-2.835 7.195-6.487h6.625c-2.083 5.737-7.492 9.835-13.82 9.835zm-5.439-10.761c0-3.066 2.44-5.56 5.44-5.56 2.999 0 5.439 2.494 5.439 5.56 0 3.065-2.44 5.56-5.44 5.56-2.999 0-5.439-2.495-5.439-5.56zm20.175-4.301c0 1.16-.13 2.289-.373 3.374h-7.168c-.448-3.652-3.503-6.487-7.195-6.487s-6.746 2.835-7.194 6.487H6.721a15.374 15.374 0 0 1-.373-3.374v-5.33h29.47v5.33h.001zm4.534-11.85h-9.476c-.5 0-.907.415-.907.927s.406.927.907.927h9.476v.379c0 1.341-1.068 2.433-2.38 2.433H4.194c-1.313 0-2.38-1.092-2.38-2.433V1.9h38.54v2.286z"/>
        <path d="M26.056 6.041h.09c.501 0 .907-.415.907-.927a.917.917 0 0 0-.907-.927h-.09c-.501 0-.907.415-.907.927s.406.927.907.927z"/>
    </g>
</svg>
