<svg xmlns="http://www.w3.org/2000/svg" width="47" height="26" viewBox="0 0 47 26">
    <g fill="#000" fill-rule="evenodd">
        <path d="M46.239 17.13H40.5l.002-.052c0-1.089-.727-2.01-1.719-2.3a2.391 2.391 0 0 0-2.734-1.685 3.174 3.174 0 0 0-4.065-1.41 2.366 2.366 0 0 0-3.836-.19 2.374 2.374 0 0 0-2.436.816 2.391 2.391 0 0 0-1.033-.031 3.174 3.174 0 0 0-5.117-.666 2.359 2.359 0 0 0-.936-.192 2.39 2.39 0 0 0-1.798.822c-.059.005-.117.01-.175.019L6.445.77A2.301 2.301 0 0 0 4.797 0a2.299 2.299 0 0 0-2.36 2.37 2.32 2.32 0 0 0 .767 1.655l11.088 9.94-.467.47-.008-.008a2.38 2.38 0 0 0-3.373 0l-2.69 2.701H.762a.763.763 0 0 0-.761.765c0 .423.34.765.761.765h2.437c1.226 0 2.358.669 2.954 1.746l1.252 2.265A6.445 6.445 0 0 0 13.04 26h20.922a6.445 6.445 0 0 0 5.635-3.33l1.252-2.265a3.378 3.378 0 0 1 2.954-1.746h2.437c.42 0 .761-.342.761-.765a.763.763 0 0 0-.761-.765zm-26.374-3.733a.761.761 0 0 0 .552-.386 1.671 1.671 0 0 1 1.459-.878c.78 0 1.45.536 1.627 1.303a.759.759 0 0 0 1.155.47.865.865 0 0 1 .949.007.758.758 0 0 0 1.145-.381.854.854 0 0 1 1.29-.435.758.758 0 0 0 1.146-.38.861.861 0 0 1 .809-.584c.439 0 .804.335.85.778a.759.759 0 1 0 1.272.485 1.663 1.663 0 0 1 1.126-.447c.781 0 1.45.535 1.627 1.302a.759.759 0 0 0 1.155.47.855.855 0 0 1 .467-.14c.475 0 .862.388.862.866 0 .422.341.765.762.765.476 0 .863.388.863.866l.002.051H26.252l-2.69-2.7a2.38 2.38 0 0 0-3.373 0l-.007.006-1.476-1.482a.858.858 0 0 1 .517.24c.17.164.408.24.642.204zm2.999 3.732l-1.605-1.612.007-.007a.855.855 0 0 1 .61-.254c.23 0 .447.09.61.254l1.612 1.62h-1.234zM3.959 2.33a.771.771 0 0 1 .795-.8.765.765 0 0 1 .555.26l9.058 10.194-10.15-9.098a.77.77 0 0 1-.258-.557zm12.434 11.69a.855.855 0 0 1 .61-.254c.23 0 .447.09.61.254l3.097 3.11h-4.203L14.9 15.517l1.492-1.499zm-4.872 1.491a.861.861 0 0 1 1.22 0l1.612 1.62H9.908l1.613-1.62zm27.996 4.152l-1.252 2.265a4.923 4.923 0 0 1-4.304 2.544H13.039a4.923 4.923 0 0 1-4.303-2.544l-1.253-2.265a4.912 4.912 0 0 0-.737-1.003h33.508a4.902 4.902 0 0 0-.737 1.003z"/>
        <path d="M33.245 16.212a.762.762 0 0 0 .761-.765.762.762 0 0 0-.761-.765.76.76 0 0 0-.761.765.76.76 0 0 0 .761.765zM29.997 15.396a.762.762 0 0 0 .761-.765.767.767 0 0 0-.761-.764.762.762 0 0 0-.762.764.762.762 0 0 0 .761.765zM27.56 16.212a.762.762 0 0 0 .762-.765.762.762 0 0 0-.761-.765.76.76 0 0 0-.762.765.76.76 0 0 0 .761.765z"/>
    </g>
</svg>
