<svg xmlns="http://www.w3.org/2000/svg" width="39" height="39" viewBox="0 0 39 39">
    <g fill="#000" fill-rule="evenodd">
        <path d="M34.979 33.62h-8.316c2.11-.833 3.727-2.02 4.96-3.454 5.043-.746 7.302-4.861 7.302-8.649 0-2.685-1.513-4.926-3.47-5.318v-.061a1.32 1.32 0 0 0-.408-.941c-.204-.27-.613-.404-.953-.404H2.797c-.34 0-.68.135-.953.404a1.32 1.32 0 0 0-.408.94c.052 7.187 1.33 14.535 8.792 17.484H1.844c-.953 0-1.77.807-1.77 1.748 0 .807.545 1.412 1.566 1.614l8.573.672c.34 0 .408.135.476.27A1.964 1.964 0 0 0 12.458 39h11.294c.749 0 1.43-.403 1.633-1.076.068-.134.204-.269.477-.269l9.32-.672h.069c.952-.202 1.497-.807 1.497-1.614 0-.941-.749-1.748-1.77-1.748zm2.517-12.103c0 2.623-1.224 5.783-4.626 6.926 2.04-3.295 2.449-7.33 2.585-10.826 1.157.404 2.041 2.018 2.041 3.9zM26.61 19.77l2.041 2.017v4.438H24.57v-4.438l2.041-2.017zM2.797 16.138H25.93v2.42l-2.518 2.489a.607.607 0 0 0-.204.47v5.38c0 .403.272.672.68.672h5.444c.408 0 .68-.269.68-.672v-5.38a.607.607 0 0 0-.204-.47l-2.517-2.488v-2.421h6.803c-.068 9.077-2.04 17.483-15.648 17.483S2.865 25.215 2.796 16.138zm32.386 19.5l-9.253.672c-.68.068-1.293.404-1.565 1.009-.136.202-.34.336-.544.336H12.458c-.204 0-.408-.134-.544-.336-.272-.605-.885-.941-1.565-1.009l-8.573-.672c-.34-.067-.34-.202-.34-.269 0-.202.204-.404.408-.404h33.27c.205 0 .41.202.41.404 0 .067 0 .202-.341.269zM17.289 5.581c-1.02 1.009-1.565 2.017-1.565 3.093s.544 2.152 1.565 3.228a.621.621 0 0 0 .476.201.74.74 0 0 0 .476-.201.645.645 0 0 0 0-.942c-.748-.807-1.156-1.546-1.156-2.286s.408-1.48 1.156-2.152c1.02-.941 1.565-2.017 1.565-3.093 0-1.143-.544-2.219-1.565-3.227a.663.663 0 0 0-.952 0 .645.645 0 0 0 0 .941c.748.807 1.156 1.547 1.156 2.286 0 .74-.408 1.48-1.156 2.152zM25.453 5.581c-1.02 1.009-1.564 2.017-1.564 3.093s.544 2.152 1.564 3.228a.621.621 0 0 0 .477.201.74.74 0 0 0 .476-.201.645.645 0 0 0 0-.942c-.749-.807-1.157-1.546-1.157-2.286s.408-1.48 1.157-2.152c1.02-.941 1.565-2.017 1.565-3.093 0-1.143-.545-2.219-1.565-3.227a.663.663 0 0 0-.953 0 .645.645 0 0 0 0 .941c.749.807 1.157 1.547 1.157 2.286 0 .74-.408 1.48-1.157 2.152zM10.485 5.581C9.465 6.59 8.92 7.598 8.92 8.674s.544 2.152 1.565 3.228a.621.621 0 0 0 .476.201.74.74 0 0 0 .476-.201.645.645 0 0 0 0-.942c-.748-.807-1.156-1.546-1.156-2.286s.408-1.48 1.156-2.152c1.02-.941 1.565-2.017 1.565-3.093 0-1.143-.544-2.219-1.565-3.227a.663.663 0 0 0-.952 0 .645.645 0 0 0 0 .941c.748.807 1.156 1.547 1.156 2.286 0 .74-.408 1.48-1.156 2.152z"/>
        <path d="M14.5 30.259c-4.832-.807-7.281-3.497-8.302-8.876-.068-.336-.476-.605-.816-.538-.34.067-.612.47-.544.807 1.088 5.984 4.014 9.01 9.389 9.951h.136c.34 0 .612-.201.68-.538a.698.698 0 0 0-.544-.806z"/>
    </g>
</svg>
