<svg xmlns="http://www.w3.org/2000/svg" width="112" height="24" viewBox="0 0 112 24">
    <g fill="#009688" fill-rule="evenodd">
        <path d="M11 16.47L16.562 20l-1.472-6.66L20 8.864l-6.472-.585L11 2 8.472 8.278 2 8.863l4.91 4.478L5.438 20zM33 16.47L38.562 20l-1.471-6.66L42 8.864l-6.472-.585L33 2l-2.528 6.278L24 8.863l4.91 4.478L27.438 20zM55 16.47L60.562 20l-1.471-6.66L64 8.864l-6.472-.585L55 2l-2.528 6.278L46 8.863l4.91 4.478L49.438 20zM89 8.744l-7.191-.617L79 1.5l-2.809 6.627L69 8.744l5.455 4.727L72.82 20.5 79 16.772l6.18 3.727-1.635-7.029L89 8.744zm-10 6.152V5.595l1.71 4.036 4.38.376-3.322 2.878.996 4.281L79 14.896zM108 8.863l-6.472-.585L99 2l-2.528 6.278L90 8.863l4.91 4.478L93.438 20 99 16.468 104.562 20l-1.472-6.66L108 8.864zm-9 5.828l-3.387 2.15.897-4.055-2.991-2.727 3.942-.356L99 5.88l1.539 3.824 3.942.356-2.99 2.727.897 4.055L99 14.691z"/>
    </g>
</svg>
