<svg xmlns="http://www.w3.org/2000/svg" width="44" height="33" viewBox="0 0 44 33">
    <g fill="#00202C" fill-rule="evenodd">
        <path d="M7.143 15.181a2.325 2.325 0 0 0 0 3.3 2.379 2.379 0 0 0 3.332 0c6.34-6.28 16.657-6.28 22.996 0a2.358 2.358 0 0 0 3.323 0 2.325 2.325 0 0 0 0-3.3c-8.172-8.103-21.48-8.103-29.65 0z"/>
        <path d="M13.5 21.479a2.325 2.325 0 0 0 0 3.3 2.379 2.379 0 0 0 3.332 0c2.829-2.81 7.444-2.81 10.273 0a2.358 2.358 0 0 0 3.322 0 2.314 2.314 0 0 0 0-3.291c-4.66-4.634-12.257-4.634-16.926-.01z"/>
        <ellipse cx="21.969" cy="29.858" rx="3.134" ry="3.104"/>
        <path d="M43.25 8.777C31.514-2.84 12.423-2.84.687 8.777a2.325 2.325 0 0 0 0 3.3 2.379 2.379 0 0 0 3.331 0c9.896-9.811 26.005-9.811 35.91 0a2.358 2.358 0 0 0 3.322 0 2.325 2.325 0 0 0 0-3.3z"/>
    </g>
</svg>
