<svg xmlns="http://www.w3.org/2000/svg" width="107" height="22" viewBox="0 0 107 22">
    <g fill="#009688" fill-rule="evenodd">
        <path d="M9 15.47L14.562 19l-1.471-6.66L18 7.864l-6.472-.585L9 1 6.472 7.278 0 7.863l4.91 4.478L3.438 19zM31 15.47L36.562 19l-1.471-6.66L40 7.864l-6.472-.585L31 1l-2.528 6.278L22 7.863l4.91 4.478L25.438 19zM53 15.47L58.562 19l-1.471-6.66L62 7.864l-6.472-.585L53 1l-2.528 6.278L44 7.863l4.91 4.478L47.438 19zM75 15.47L80.562 19l-1.471-6.66L84 7.864l-6.472-.585L75 1l-2.528 6.278L66 7.863l4.91 4.478L69.437 19zM108 7.744l-7.191-.617L98 .5l-2.809 6.627L88 7.744l5.455 4.727L91.82 19.5 98 15.772l6.18 3.727-1.635-7.029L108 7.744zm-10 6.152V4.595l1.71 4.036 4.38.376-3.322 2.878.996 4.281L98 13.896z"/>
    </g>
</svg>
